<svg width="45" height="47" viewBox="0 0 45 47" fill="none" xmlns="http://www.w3.org/2000/svg">
<rect width="45" height="47" rx="10" fill="#80ED99"/>
<mask id="mask0_223_4" style="mask-type:alpha" maskUnits="userSpaceOnUse" x="4" y="6" width="37" height="35">
<rect x="4.97851" y="6.52539" width="35.043" height="33.9494" fill="#D9D9D9"/>
</mask>
<g mask="url(#mask0_223_4)">
<path d="M12.8632 34.2508C11.7681 33.1899 10.9103 31.9639 10.2897 30.5729C9.66917 29.182 9.35889 27.7438 9.35889 26.2585C9.35889 24.7733 9.65092 23.3056 10.235 21.8557C10.819 20.4058 11.7681 19.0443 13.0822 17.7712C13.9339 16.946 14.9865 16.2388 16.2397 15.6494C17.493 15.06 18.9775 14.5943 20.6931 14.2525C22.4088 13.9106 24.3678 13.7043 26.5701 13.6336C28.7725 13.5629 31.2364 13.6454 33.962 13.8812C34.1567 16.3802 34.2175 18.6789 34.1445 20.7771C34.0715 22.8754 33.8707 24.7674 33.5422 26.453C33.2137 28.1387 32.7513 29.6122 32.1551 30.8735C31.5589 32.1348 30.8227 33.1899 29.9466 34.0386C28.6569 35.2881 27.288 36.2017 25.84 36.7793C24.3921 37.3569 22.9137 37.6457 21.4049 37.6457C19.8231 37.6457 18.2778 37.3451 16.769 36.7439C15.2602 36.1428 13.9583 35.3117 12.8632 34.2508ZM16.9515 33.685C17.6573 34.0858 18.3812 34.3746 19.1235 34.5514C19.8657 34.7282 20.6262 34.8166 21.4049 34.8166C22.5243 34.8166 23.6316 34.5985 24.7267 34.1624C25.8218 33.7262 26.8682 33.0248 27.866 32.0582C28.304 31.6339 28.7481 31.0386 29.1983 30.2723C29.6485 29.5061 30.0379 28.5041 30.3664 27.2664C30.695 26.0287 30.9444 24.5316 31.1147 22.7752C31.2851 21.0188 31.3094 18.9264 31.1877 16.4981C29.9953 16.4509 28.6508 16.4333 27.1542 16.445C25.6575 16.4568 24.167 16.5688 22.6825 16.781C21.1981 16.9932 19.7866 17.335 18.4482 17.8066C17.1097 18.2781 16.0146 18.9264 15.1629 19.7516C14.0678 20.8125 13.3134 21.8616 12.8997 22.899C12.486 23.9363 12.2791 24.9383 12.2791 25.9049C12.2791 27.2959 12.5529 28.5159 13.1005 29.5651C13.648 30.6142 14.1286 31.3509 14.5423 31.7753C15.5644 29.8892 16.915 28.0798 18.5942 26.3469C20.2733 24.6141 22.2323 23.1937 24.4712 22.0856C22.719 23.5709 21.192 25.2507 19.89 27.125C18.5881 28.9992 17.6086 31.1859 16.9515 33.685Z" fill="white"/>
</g>
</svg>
