<svg width="500" height="500" viewBox="0 0 500 500" fill="none" xmlns="http://www.w3.org/2000/svg">
<path d="M85.45 418C174.21 463.38 318.12 463.38 406.87 418C495.62 372.62 495.63 299 406.87 253.67C318.11 208.34 174.21 208.29 85.45 253.67C-3.30996 299.05 -3.29996 372.63 85.45 418Z" fill="#F5F5F5"/>
<path d="M375.73 345.51C380.6 348.32 390.16 347.35 397.08 343.35L437 320.16C443.93 316.16 445.59 310.64 440.72 307.82C435.85 305 426.3 306 419.37 310L379.47 333.21C372.54 337.18 370.87 342.7 375.73 345.51Z" fill="#EBEBEB"/>
<path d="M135.31 366.9L94.6899 343.45L135.31 320V366.9Z" fill="#EBEBEB"/>
<path d="M250.12 380.93L184.65 343.11L250.13 305.36L250.12 380.93Z" fill="#EBEBEB"/>
<path d="M80.36 312.07C80.48 302.57 73.84 282.8 64.13 270.35C54.42 257.9 39 248.69 28 252.32C17.7 255.71 18.65 269.17 31 278.24C43.35 287.31 61.9 298.73 67.19 314.24L78.44 333.24L80.36 312.07Z" fill="#80ED99"/>
<path opacity="0.1" d="M80.36 312.07C80.48 302.57 73.84 282.8 64.13 270.35C54.42 257.9 39 248.69 28 252.32C17.7 255.71 18.65 269.17 31 278.24C43.35 287.31 61.9 298.73 67.19 314.24L78.44 333.24L80.36 312.07Z" fill="black"/>
<path d="M80.9099 325.08C80.7581 325.067 80.615 325.004 80.5028 324.901C80.3907 324.797 80.3158 324.66 80.2899 324.51C74.2899 292 48.3899 265.32 32.7599 259.31C32.6654 259.284 32.5774 259.239 32.5016 259.177C32.4257 259.115 32.3637 259.038 32.3194 258.951C32.2752 258.864 32.2498 258.768 32.2448 258.67C32.2398 258.572 32.2554 258.475 32.2906 258.383C32.3257 258.292 32.3796 258.209 32.4488 258.14C32.518 258.07 32.601 258.017 32.6923 257.981C32.7837 257.946 32.8814 257.931 32.9791 257.935C33.0769 257.94 33.1725 257.966 33.2599 258.01C49.1899 264.14 75.5899 291.26 81.6499 324.26C81.6673 324.349 81.6668 324.441 81.6486 324.53C81.6303 324.619 81.5946 324.704 81.5434 324.779C81.4923 324.855 81.4268 324.919 81.3507 324.969C81.2746 325.019 81.1893 325.053 81.0999 325.07L80.9099 325.08Z" fill="white"/>
<path d="M75.8199 345.78C74.3599 340.42 67.9399 331.53 57.4799 324.12C45.8999 315.93 31.1799 312.05 27.8499 305.74C23.8499 298.16 30.2799 291.12 42.2499 292.74C54.2199 294.36 75.0999 311 78.1799 335.66L75.8199 345.78Z" fill="#80ED99"/>
<path d="M78.21 340.2C78.0764 340.189 77.9489 340.139 77.8426 340.058C77.7362 339.976 77.6555 339.866 77.61 339.74C68 311.83 46.92 301.82 37.12 300.43C36.9383 300.405 36.7741 300.308 36.6635 300.162C36.5528 300.016 36.5048 299.831 36.53 299.65C36.5552 299.468 36.6515 299.304 36.7978 299.193C36.9441 299.083 37.1283 299.035 37.31 299.06C48.15 300.6 69.12 310.8 78.93 339.28C78.988 339.455 78.9756 339.646 78.8953 339.812C78.815 339.978 78.6733 340.106 78.5 340.17C78.4063 340.199 78.3077 340.209 78.21 340.2Z" fill="white"/>
<path d="M434.93 285C434.93 285 436.26 265 448.06 250.1C459.86 235.2 459.14 229.1 451 226.1C442.86 223.1 424 241.05 428.16 265C432.32 288.95 434.93 285 434.93 285Z" fill="#80ED99"/>
<path opacity="0.1" d="M434.93 285C434.93 285 436.26 265 448.06 250.1C459.86 235.2 459.14 229.1 451 226.1C442.86 223.1 424 241.05 428.16 265C432.32 288.95 434.93 285 434.93 285Z" fill="black"/>
<path d="M431.32 273.58C431.202 273.58 431.088 273.536 431.001 273.456C430.914 273.377 430.86 273.267 430.85 273.15C429.48 251.09 445.05 232.99 450.85 228.89C450.899 228.854 450.954 228.828 451.013 228.814C451.072 228.8 451.134 228.798 451.193 228.808C451.253 228.819 451.31 228.841 451.361 228.874C451.412 228.907 451.456 228.949 451.49 229C451.56 229.101 451.589 229.226 451.568 229.347C451.547 229.469 451.48 229.577 451.38 229.65C445.66 233.65 430.38 251.42 431.74 273.09C431.745 273.211 431.704 273.33 431.624 273.421C431.543 273.513 431.431 273.569 431.31 273.58H431.32Z" fill="white"/>
<path d="M431.72 301.56C437.034 303.296 442.478 304.607 448 305.48C457.14 306.92 461.18 302.55 461.18 302.55C461.18 302.55 457.58 293.98 452.39 291.55C458.005 292.812 463.368 295.012 468.25 298.06C468.25 298.06 473.83 298.15 476.05 289.63C476.05 289.63 472.75 284.5 461.65 281.73C461.65 281.73 468.4 280.03 478.13 282.51C478.86 282.8 481.97 271.79 482.91 266.71C483.85 261.63 481.81 261.71 477.85 260.62C473.89 259.53 460.76 256.62 458.28 258.79C455.8 260.96 454.54 268.42 454.54 268.42C453.558 265.366 453.43 262.101 454.17 258.98C454.17 258.98 450.61 257.59 445.07 259.2C440.55 260.51 440.33 263.59 440.53 267.07C440.798 270.093 441.47 273.066 442.53 275.91C442.53 275.91 439 271.39 438.89 261.58C438.89 261.58 429.63 266.18 428.05 275.38C427.13 280.37 425.91 295 431.72 301.56Z" fill="#80ED99"/>
<path d="M433.46 299.78C433.557 299.779 433.653 299.752 433.736 299.701C433.819 299.65 433.886 299.577 433.93 299.49C441.3 284.16 468.73 266.35 478.55 264.44C478.616 264.428 478.68 264.403 478.737 264.366C478.793 264.329 478.842 264.282 478.881 264.226C478.919 264.17 478.945 264.107 478.959 264.041C478.973 263.975 478.973 263.906 478.96 263.84C478.931 263.706 478.851 263.588 478.738 263.512C478.624 263.436 478.485 263.406 478.35 263.43C468.35 265.38 440.49 283.43 433 299.04C432.941 299.163 432.933 299.305 432.978 299.434C433.023 299.563 433.117 299.67 433.24 299.73C433.309 299.761 433.384 299.778 433.46 299.78Z" fill="white"/>
<path d="M76.78 352.86C75.65 352.86 74.97 351.93 74.97 350.36V182.15L281 63.2197V230.75C280.929 232.148 280.53 233.511 279.835 234.727C279.14 235.943 278.169 236.978 277 237.75L78.42 352.35C77.9273 352.66 77.3618 352.836 76.78 352.86Z" fill="#FAFAFA"/>
<path d="M280.38 64.2297V230.75C280.296 232.047 279.914 233.308 279.264 234.433C278.613 235.559 277.712 236.519 276.63 237.24L78.1299 351.84C77.7258 352.101 77.2605 352.253 76.7799 352.28C75.6699 352.28 75.5499 350.93 75.5499 350.36V182.49L280.38 64.2297ZM281.55 62.2297L74.3799 181.81V350.36C74.3799 352.36 75.3799 353.45 76.7799 353.45C77.4637 353.425 78.1291 353.221 78.7099 352.86L277.22 238.25C278.48 237.427 279.528 236.32 280.281 235.017C281.033 233.714 281.468 232.252 281.55 230.75V62.1997V62.2297Z" fill="#E0E0E0"/>
<path d="M74.3899 181.81V209.96L281.55 90.3497V62.1997L74.3899 181.81Z" fill="#80ED99"/>
<path d="M90.6299 183.31V187.31C90.6299 188.13 91.2199 188.47 91.9299 188.06L155.62 151.29V144.29L91.9299 181.06C91.5537 181.309 91.2404 181.641 91.0148 182.032C90.7892 182.422 90.6574 182.86 90.6299 183.31Z" fill="#FAFAFA"/>
<path d="M162.45 140.35C163.17 139.93 163.75 140.27 163.75 141.1V145.1C163.724 145.55 163.593 145.988 163.367 146.379C163.141 146.77 162.827 147.102 162.45 147.35L155.62 151.29V144.29L162.45 140.35Z" fill="#455A64"/>
<path d="M74.3799 172.74C74.462 171.238 74.8968 169.776 75.649 168.473C76.4013 167.17 77.4499 166.062 78.7099 165.24L277.22 50.6299C279.61 49.2499 281.55 50.3699 281.55 53.1299V62.1999L74.3799 181.81V172.74Z" fill="#455A64"/>
<path d="M258.52 66.1401C257.934 66.527 257.448 67.0464 257.101 67.6562C256.753 68.266 256.554 68.9491 256.52 69.6501C256.52 70.9501 257.43 71.4701 258.52 70.8301C259.105 70.4409 259.592 69.9197 259.939 69.3083C260.286 68.6969 260.485 68.0124 260.52 67.31C260.56 66 259.65 65.4901 258.52 66.1401Z" fill="#80ED99"/>
<path d="M265 62.42C264.414 62.8069 263.928 63.3264 263.581 63.9361C263.233 64.5459 263.034 65.229 263 65.93C263 67.23 263.91 67.75 265 67.11C265.585 66.7197 266.07 66.1982 266.417 65.587C266.764 64.9758 266.964 64.292 267 63.59C267 62.29 266.08 61.77 265 62.42Z" fill="#80ED99"/>
<path d="M271.39 58.6998C270.804 59.0867 270.318 59.6061 269.971 60.2159C269.623 60.8257 269.424 61.5088 269.39 62.2098C269.39 63.5098 270.3 64.0298 271.39 63.3898C271.975 62.9995 272.46 62.4779 272.807 61.8668C273.154 61.2556 273.354 60.5718 273.39 59.8698C273.42 58.5698 272.51 58.0498 271.39 58.6998Z" fill="#80ED99"/>
<g opacity="0.1">
<path d="M216.55 108.67C215.258 109.515 214.184 110.653 213.414 111.991C212.645 113.328 212.201 114.829 212.12 116.37C212.12 119.2 214.12 120.37 216.55 118.93C217.843 118.088 218.919 116.953 219.691 115.617C220.462 114.281 220.907 112.781 220.99 111.24C221 108.41 219 107.26 216.55 108.67Z" fill="black"/>
<path d="M196.25 120.4C194.957 121.242 193.88 122.377 193.109 123.713C192.337 125.05 191.892 126.549 191.81 128.09C191.81 130.92 193.81 132.09 196.25 130.66C197.541 129.815 198.616 128.678 199.385 127.34C200.155 126.002 200.598 124.502 200.68 122.96C200.68 120.13 198.7 119 196.25 120.4Z" fill="black"/>
<path d="M236.86 97.0001C235.568 97.843 234.494 98.9787 233.724 100.315C232.955 101.651 232.511 103.15 232.43 104.69C232.43 107.52 234.43 108.69 236.86 107.25C238.153 106.409 239.23 105.274 240.002 103.937C240.773 102.601 241.218 101.101 241.3 99.5601C241.3 96.6801 239.32 95.5301 236.86 97.0001Z" fill="black"/>
<path d="M257.18 85.2C255.887 86.0418 254.81 87.177 254.039 88.5133C253.267 89.8496 252.822 91.3492 252.74 92.89C252.74 95.72 254.74 96.89 257.18 95.45C258.473 94.6083 259.549 93.473 260.321 92.1367C261.092 90.8004 261.537 89.3008 261.62 87.76C261.62 84.93 259.63 83.78 257.18 85.2Z" fill="black"/>
</g>
<path d="M94.9999 212.15L143.21 184.31C145.6 182.93 147.54 184.05 147.54 186.81V233.1C147.458 234.602 147.023 236.064 146.271 237.367C145.519 238.67 144.47 239.778 143.21 240.6L94.9999 268.43C92.6099 269.81 90.6699 268.69 90.6699 265.93V219.65C90.752 218.148 91.1868 216.686 91.9391 215.383C92.6913 214.08 93.7399 212.972 94.9999 212.15Z" fill="#E0E0E0"/>
<path d="M164 172.28L265 114C267.39 112.61 269.33 113.73 269.33 116.5V162.78C269.248 164.282 268.813 165.744 268.061 167.047C267.309 168.35 266.26 169.458 265 170.28L164 228.56C161.61 229.94 159.67 228.82 159.67 226.06V179.78C159.752 178.278 160.187 176.816 160.939 175.513C161.691 174.21 162.74 173.102 164 172.28Z" fill="#E0E0E0"/>
<path d="M94.9999 282.5L171.64 238.25C174.04 236.87 175.98 237.85 175.98 240.44C175.873 241.894 175.425 243.303 174.673 244.552C173.921 245.801 172.885 246.855 171.65 247.63L94.9999 291.88C92.6099 293.26 90.6699 292.28 90.6699 289.69C90.7768 288.236 91.2244 286.827 91.9767 285.578C92.7289 284.329 93.7646 283.274 94.9999 282.5Z" fill="#E0E0E0"/>
<path d="M94.9999 298.92L171.64 254.67C174.04 253.29 175.98 254.27 175.98 256.86C175.873 258.314 175.425 259.723 174.673 260.972C173.921 262.221 172.885 263.275 171.65 264.05L94.9999 308.3C92.6099 309.68 90.6699 308.7 90.6699 306.11C90.7768 304.656 91.2244 303.247 91.9767 301.998C92.7289 300.749 93.7646 299.694 94.9999 298.92Z" fill="#E0E0E0"/>
<path d="M94.9999 315.33L171.64 271.08C174.04 269.7 175.98 270.68 175.98 273.27C175.873 274.724 175.425 276.133 174.673 277.382C173.921 278.631 172.885 279.685 171.65 280.46L94.9999 324.71C92.6099 326.09 90.6699 325.11 90.6699 322.52C90.7768 321.066 91.2244 319.657 91.9767 318.408C92.7289 317.159 93.7646 316.105 94.9999 315.33Z" fill="#E0E0E0"/>
<path d="M131.25 259.67C131.301 258.769 131.563 257.892 132.015 257.111C132.466 256.329 133.095 255.664 133.85 255.17L266.76 178.44C267.566 178.031 268.456 177.817 269.36 177.817C270.264 177.817 271.154 178.031 271.96 178.44L274.89 180.13C275.645 180.624 276.273 181.289 276.723 182.07C277.173 182.852 277.432 183.729 277.48 184.63V286.51C277.431 287.41 277.171 288.287 276.721 289.068C276.271 289.85 275.644 290.515 274.89 291.01L142 367.74C141.194 368.149 140.304 368.363 139.4 368.363C138.496 368.363 137.606 368.149 136.8 367.74L133.87 366.05C133.114 365.556 132.485 364.892 132.034 364.11C131.582 363.328 131.32 362.451 131.27 361.55L131.25 259.67Z" fill="#80ED99"/>
<path opacity="0.4" d="M132 257.11L139.38 261.37L276.71 182.07C276.271 181.278 275.642 180.608 274.88 180.12L272 178.44C271.198 178.031 270.31 177.817 269.41 177.817C268.51 177.817 267.622 178.031 266.82 178.44L133.85 255.17C133.08 255.65 132.443 256.317 132 257.11Z" fill="white"/>
<path opacity="0.1" d="M131.25 259.67V361.55C131.3 362.451 131.562 363.328 132.014 364.11C132.465 364.891 133.094 365.556 133.85 366.05L136.78 367.74C137.005 367.87 137.243 367.978 137.49 368.06C137.838 368.177 138.196 368.261 138.56 368.31C139.243 368.394 139.935 368.367 140.61 368.23C140.783 368.198 140.953 368.155 141.12 368.1L141.43 367.98C141.233 368.065 141.02 368.109 140.805 368.109C140.59 368.109 140.377 368.065 140.18 367.98C139.903 367.796 139.683 367.538 139.543 367.236C139.404 366.935 139.351 366.6 139.39 366.27V264.37C139.364 263.907 139.479 263.446 139.72 263.05C139.961 262.653 140.317 262.34 140.74 262.15L139.39 261.37L132 257.11C131.537 257.886 131.279 258.767 131.25 259.67Z" fill="black"/>
<path opacity="0.2" d="M139.39 261.37L200.94 284.37C203.068 285.163 205.404 285.208 207.561 284.498C209.718 283.787 211.57 282.363 212.81 280.46L222.69 265.32L277.21 181.79L224.66 265.89L277.48 286.56C277.436 287.478 277.157 288.37 276.67 289.15L224.52 266.15L213 284.5C211.724 286.539 209.755 288.049 207.456 288.755C205.156 289.46 202.68 289.313 200.48 288.34L192.3 284.73L140.18 368C139.903 367.816 139.683 367.558 139.543 367.257C139.404 366.955 139.351 366.62 139.39 366.29V364.6L192.07 284.67L139.39 261.37Z" fill="black"/>
<path d="M249.05 144.41V378.31C249.05 381.07 250.99 382.19 253.38 380.81L358.46 320.14C359.72 319.318 360.769 318.21 361.521 316.907C362.273 315.604 362.708 314.143 362.79 312.64V78.7402C362.79 75.9802 360.85 74.8602 358.46 76.2402L253.38 136.91C252.119 137.731 251.07 138.839 250.317 140.142C249.565 141.445 249.131 142.908 249.05 144.41Z" fill="#FAFAFA" stroke="#E0E0E0" stroke-width="1.16981" stroke-miterlimit="10"/>
<path d="M255.14 148.76C255.174 148.39 255.294 148.033 255.49 147.717C255.686 147.401 255.953 147.135 256.27 146.94L268.27 140.03C268.89 139.67 269.39 139.91 269.39 140.56C269.358 140.93 269.24 141.287 269.046 141.603C268.851 141.919 268.586 142.185 268.27 142.38L256.27 149.29C255.65 149.65 255.14 149.41 255.14 148.76Z" fill="#455A64"/>
<path d="M255.14 153.42C255.173 153.05 255.293 152.692 255.489 152.376C255.685 152.06 255.953 151.794 256.27 151.6L268.27 144.69C268.89 144.33 269.39 144.57 269.39 145.21C269.36 145.582 269.243 145.941 269.048 146.259C268.854 146.577 268.587 146.844 268.27 147.04L256.27 153.94C255.65 154.3 255.14 154.07 255.14 153.42Z" fill="#455A64"/>
<path d="M255.14 158.08C255.173 157.71 255.293 157.352 255.489 157.036C255.685 156.72 255.953 156.454 256.27 156.26L268.27 149.35C268.89 148.99 269.39 149.22 269.39 149.87C269.36 150.24 269.243 150.598 269.048 150.914C268.853 151.23 268.587 151.496 268.27 151.69L256.27 158.6C255.65 159 255.14 158.73 255.14 158.08Z" fill="#455A64"/>
<path d="M354.67 98.1005V96.2305C354.671 96.2078 354.666 96.1852 354.655 96.1651C354.644 96.145 354.629 96.128 354.609 96.1158C354.59 96.1037 354.568 96.0968 354.545 96.0959C354.523 96.0949 354.5 96.1 354.48 96.1105L353.04 96.7605C353.017 96.7717 352.992 96.7777 352.967 96.7781C352.942 96.7785 352.917 96.7732 352.894 96.7626C352.871 96.7521 352.85 96.7366 352.834 96.7172C352.818 96.6978 352.806 96.675 352.8 96.6505C352.724 96.4012 352.616 96.1626 352.48 95.9405C352.453 95.8862 352.439 95.8262 352.439 95.7655C352.439 95.7047 352.453 95.6448 352.48 95.5905L353.48 93.6505C353.505 93.6013 353.509 93.5445 353.492 93.4921C353.475 93.4397 353.439 93.3961 353.39 93.3705L352.39 92.7705C352.343 92.7464 352.288 92.7403 352.237 92.7532C352.185 92.766 352.14 92.797 352.11 92.8405L350.91 94.6405C350.874 94.6887 350.828 94.7276 350.773 94.7537C350.719 94.7799 350.66 94.7925 350.6 94.7905C350.338 94.7883 350.076 94.8152 349.82 94.8705C349.796 94.8781 349.77 94.8801 349.744 94.8763C349.719 94.8725 349.695 94.863 349.674 94.8486C349.653 94.8342 349.635 94.8152 349.622 94.793C349.609 94.7708 349.602 94.746 349.6 94.7205L349.44 93.1505C349.44 93.0405 349.34 92.9905 349.25 93.0505L347.63 93.9805C347.579 94.0141 347.535 94.0582 347.503 94.11C347.47 94.1617 347.448 94.2198 347.44 94.2805L347.28 96.0805C347.258 96.2082 347.199 96.3266 347.11 96.4205C346.785 96.7309 346.485 97.0652 346.21 97.4205C346.171 97.4654 346.121 97.4978 346.064 97.5139C346.007 97.5299 345.946 97.5287 345.89 97.5105L344.89 97.1505C344.836 97.1335 344.778 97.1351 344.726 97.1551C344.673 97.175 344.629 97.2122 344.6 97.2605L343.41 99.3205C343.386 99.3694 343.378 99.4247 343.387 99.4786C343.396 99.5324 343.421 99.5821 343.46 99.6205L344.3 100.34C344.341 100.382 344.37 100.433 344.384 100.489C344.398 100.546 344.397 100.605 344.38 100.66C344.226 101.072 344.099 101.493 344 101.92C343.966 102.042 343.897 102.15 343.8 102.23L342.32 103.23C342.271 103.269 342.23 103.317 342.2 103.372C342.171 103.427 342.154 103.488 342.15 103.55V105.41C342.145 105.434 342.147 105.459 342.157 105.482C342.167 105.504 342.183 105.523 342.203 105.536C342.224 105.549 342.248 105.556 342.273 105.555C342.297 105.554 342.32 105.545 342.34 105.53L343.78 104.88C343.804 104.871 343.829 104.867 343.854 104.868C343.879 104.869 343.904 104.875 343.927 104.887C343.949 104.898 343.969 104.914 343.986 104.934C344.002 104.953 344.013 104.976 344.02 105C344.096 105.25 344.204 105.488 344.34 105.71C344.367 105.765 344.381 105.825 344.381 105.885C344.381 105.946 344.367 106.006 344.34 106.06L343.34 107.99C343.317 108.042 343.314 108.099 343.33 108.152C343.347 108.206 343.382 108.251 343.43 108.28L344.43 108.88C344.477 108.905 344.532 108.911 344.583 108.898C344.634 108.885 344.68 108.854 344.71 108.81L345.91 107.01C345.946 106.962 345.992 106.923 346.046 106.897C346.1 106.871 346.16 106.858 346.22 106.86C346.482 106.863 346.744 106.836 347 106.78C347.024 106.773 347.05 106.771 347.076 106.775C347.101 106.778 347.125 106.788 347.146 106.802C347.167 106.817 347.185 106.836 347.198 106.858C347.21 106.88 347.218 106.905 347.22 106.93L347.38 108.5C347.38 108.61 347.47 108.66 347.57 108.6L349.19 107.67C349.241 107.634 349.284 107.588 349.317 107.535C349.35 107.482 349.371 107.422 349.38 107.36L349.54 105.56C349.56 105.435 349.619 105.319 349.71 105.23C350.034 104.92 350.335 104.586 350.61 104.23C350.648 104.186 350.699 104.153 350.756 104.137C350.813 104.121 350.874 104.122 350.93 104.14L351.93 104.5C351.984 104.517 352.041 104.516 352.094 104.496C352.147 104.476 352.191 104.439 352.22 104.39L353.41 102.33C353.435 102.279 353.443 102.221 353.432 102.165C353.422 102.109 353.393 102.058 353.35 102.02L352.52 101.31C352.479 101.269 352.45 101.218 352.436 101.162C352.421 101.105 352.423 101.046 352.44 100.99C352.594 100.579 352.721 100.158 352.82 99.7305C352.848 99.6069 352.919 99.4971 353.02 99.4205L354.5 98.4205C354.548 98.3814 354.589 98.3329 354.618 98.2779C354.647 98.2229 354.665 98.1626 354.67 98.1005ZM348.34 104C346.83 104.88 345.61 104.17 345.61 102.43C345.657 101.481 345.929 100.555 346.403 99.7313C346.878 98.9072 347.542 98.2077 348.34 97.6905C349.85 96.8205 351.07 97.5305 351.07 99.2705C351.022 100.219 350.749 101.142 350.274 101.964C349.8 102.786 349.137 103.484 348.34 104Z" fill="#37474F"/>
<path d="M305.92 144.2C318.2 137.11 328.15 142.86 328.15 157.04C328.15 171.22 318.2 188.45 305.92 195.54C293.64 202.63 283.69 196.88 283.69 182.71C283.69 168.54 293.64 151.29 305.92 144.2Z" fill="#455A64"/>
<path d="M305.77 155.36C309.77 153.06 312.98 154.92 312.98 159.52C312.843 162.02 312.119 164.453 310.866 166.622C309.614 168.79 307.868 170.632 305.77 172C301.77 174.3 298.55 172.44 298.55 167.84C298.687 165.339 299.413 162.905 300.667 160.737C301.922 158.568 303.67 156.726 305.77 155.36Z" fill="#80ED99"/>
<path d="M320 179.88C320 172.33 314.69 169.26 308.15 173.04L304 175.4C297.46 179.18 292.15 188.4 292.15 195.93V198C293.385 198.395 294.674 198.594 295.97 198.59C299.478 198.471 302.895 197.437 305.88 195.59C311.592 192.082 316.423 187.309 320 181.64V179.88Z" fill="#80ED99"/>
<path d="M285.86 216.63L326 193.46C327.19 192.77 328.16 193.26 328.16 194.56C328.106 195.286 327.882 195.989 327.507 196.612C327.132 197.236 326.616 197.762 326 198.15L285.87 221.32C284.67 222.02 283.7 221.52 283.7 220.23C283.752 219.502 283.974 218.797 284.349 218.172C284.725 217.546 285.242 217.018 285.86 216.63Z" fill="#80ED99"/>
<path d="M281.55 233.21L330.29 205C331.49 204.31 332.46 204.8 332.46 206.1C332.406 206.827 332.181 207.531 331.804 208.154C331.427 208.778 330.908 209.304 330.29 209.69L281.55 237.9C280.35 238.59 279.38 238.1 279.38 236.8C279.434 236.073 279.659 235.37 280.036 234.746C280.413 234.122 280.932 233.596 281.55 233.21Z" fill="#455A64"/>
<path d="M331.59 227.74L345.24 219.86C345.96 219.45 346.54 219.64 346.54 220.29C346.486 220.689 346.34 221.069 346.115 221.402C345.889 221.735 345.59 222.012 345.24 222.21L331.59 230.09C330.88 230.5 330.29 230.31 330.29 229.67C330.345 229.27 330.491 228.889 330.716 228.554C330.941 228.22 331.24 227.941 331.59 227.74Z" fill="#37474F"/>
<path d="M263.4 262.43L283.45 250.86C284.64 250.17 285.61 250.73 285.61 252.11V265.87C285.569 266.621 285.352 267.351 284.977 268.003C284.601 268.654 284.079 269.208 283.45 269.62L263.4 281.19C262.21 281.88 261.24 281.32 261.24 279.94V266.18C261.281 265.43 261.498 264.699 261.873 264.048C262.249 263.397 262.771 262.843 263.4 262.43Z" fill="#80ED99"/>
<path d="M266.6 264.35L280.25 256.47C280.97 256.06 281.55 256.25 281.55 256.89C281.497 257.291 281.353 257.673 281.127 258.008C280.901 258.343 280.601 258.621 280.25 258.82L266.6 266.7C265.88 267.11 265.3 266.92 265.3 266.28C265.353 265.88 265.498 265.497 265.723 265.163C265.949 264.828 266.249 264.55 266.6 264.35Z" fill="#FAFAFA"/>
<path d="M265.3 271.29V275.29C265.3 276.12 265.88 276.45 266.6 276.04L280.25 268.16C280.628 267.914 280.943 267.582 281.169 267.191C281.395 266.8 281.526 266.361 281.55 265.91V261.91C281.55 261.08 280.97 260.75 280.25 261.16L266.6 269C266.217 269.252 265.9 269.59 265.674 269.989C265.448 270.387 265.32 270.833 265.3 271.29Z" fill="#FAFAFA"/>
<path d="M295.9 243.67L315.9 232.1C317.1 231.41 318.07 231.97 318.07 233.35V247.11C318.029 247.862 317.811 248.593 317.434 249.245C317.057 249.897 316.531 250.45 315.9 250.86L295.9 262.43C294.7 263.12 293.74 262.56 293.74 261.18V247.42C293.779 246.669 293.995 245.938 294.37 245.286C294.746 244.634 295.27 244.081 295.9 243.67Z" fill="#80ED99"/>
<path d="M299.1 245.59L312.75 237.71C313.46 237.3 314.04 237.49 314.04 238.13C313.987 238.529 313.843 238.911 313.62 239.245C313.396 239.58 313.098 239.859 312.75 240.06L299.1 247.94C298.38 248.35 297.8 248.16 297.8 247.51C297.854 247.112 298 246.731 298.225 246.398C298.451 246.065 298.75 245.788 299.1 245.59Z" fill="#FAFAFA"/>
<path d="M297.8 252.53V256.53C297.8 257.36 298.38 257.69 299.1 257.28L312.75 249.4C313.126 249.152 313.438 248.819 313.662 248.428C313.886 248.038 314.015 247.6 314.04 247.15V243.15C314.04 242.32 313.45 241.99 312.74 242.4L299.09 250.28C298.714 250.528 298.401 250.861 298.176 251.251C297.952 251.642 297.823 252.08 297.8 252.53Z" fill="#FAFAFA"/>
<path d="M328.4 224.91L348.4 213.33C349.59 212.64 350.56 213.2 350.56 214.58V228.35C350.519 229.101 350.302 229.831 349.927 230.482C349.551 231.134 349.028 231.688 348.4 232.1L328.4 243.67C327.2 244.36 326.23 243.8 326.23 242.42V228.66C326.271 227.908 326.489 227.177 326.866 226.525C327.243 225.873 327.768 225.32 328.4 224.91Z" fill="#80ED99"/>
<path d="M331.59 226.83L345.24 219C345.96 218.58 346.54 218.77 346.54 219.42C346.488 219.82 346.344 220.201 346.118 220.535C345.892 220.868 345.591 221.144 345.24 221.34L331.59 229.22C330.88 229.64 330.29 229.45 330.29 228.8C330.337 228.393 330.479 228.002 330.705 227.66C330.93 227.318 331.234 227.033 331.59 226.83Z" fill="#FAFAFA"/>
<path d="M330.29 233.77V237.77C330.29 238.59 330.88 238.93 331.59 238.52L345.24 230.63C345.619 230.385 345.934 230.053 346.16 229.662C346.386 229.271 346.516 228.831 346.54 228.38V224.38C346.54 223.55 345.96 223.21 345.24 223.63L331.59 231.51C331.211 231.758 330.896 232.092 330.67 232.485C330.444 232.878 330.314 233.318 330.29 233.77Z" fill="#FAFAFA"/>
<path d="M265.57 294L346.27 247.41C348.67 246.03 350.6 247.01 350.6 249.6C350.496 251.055 350.049 252.464 349.296 253.714C348.544 254.963 347.507 256.017 346.27 256.79L265.57 303.38C263.18 304.76 261.24 303.78 261.24 301.19C261.347 299.736 261.794 298.327 262.547 297.078C263.299 295.829 264.335 294.775 265.57 294Z" fill="#E0E0E0"/>
<path d="M265.57 312.77L346.27 266.18C348.67 264.8 350.6 265.78 350.6 268.37C350.496 269.825 350.049 271.234 349.296 272.484C348.544 273.733 347.507 274.787 346.27 275.56L265.57 322.16C263.18 323.54 261.24 322.56 261.24 319.96C261.347 318.506 261.794 317.097 262.547 315.848C263.299 314.599 264.335 313.545 265.57 312.77Z" fill="#E0E0E0"/>
<path d="M291.84 321.06L320 304.8C321.2 304.11 322.17 304.67 322.17 306.05V315.12C322.129 315.872 321.912 316.604 321.534 317.255C321.157 317.907 320.632 318.46 320 318.87L291.84 335.13C290.64 335.82 289.67 335.26 289.67 333.88V324.81C289.711 324.059 289.929 323.327 290.306 322.675C290.683 322.024 291.209 321.47 291.84 321.06Z" fill="#80ED99"/>
<path d="M267.33 295.39C266.744 295.779 266.258 296.301 265.911 296.912C265.563 297.524 265.365 298.208 265.33 298.91C265.33 300.2 266.24 300.73 267.33 300.08C267.916 299.691 268.402 299.17 268.749 298.559C269.097 297.947 269.296 297.263 269.33 296.56C269.36 295.27 268.45 294.74 267.33 295.39Z" fill="#FAFAFA"/>
<path d="M273.77 291.67C273.183 292.058 272.696 292.579 272.349 293.191C272.001 293.802 271.803 294.487 271.77 295.19C271.77 296.48 272.67 297.01 273.77 296.36C274.356 295.971 274.842 295.45 275.189 294.838C275.537 294.227 275.736 293.542 275.77 292.84C275.8 291.55 274.89 291 273.77 291.67Z" fill="#FAFAFA"/>
<path d="M280.2 288C279.614 288.389 279.128 288.911 278.781 289.522C278.433 290.133 278.234 290.818 278.2 291.52C278.2 292.81 279.11 293.34 280.2 292.69C280.786 292.301 281.272 291.78 281.619 291.168C281.967 290.557 282.166 289.873 282.2 289.17C282.23 287.83 281.32 287.3 280.2 288Z" fill="#FAFAFA"/>
<path d="M286.64 284.23C286.054 284.619 285.567 285.14 285.22 285.751C284.872 286.363 284.674 287.048 284.64 287.75C284.64 289.04 285.55 289.57 286.64 288.92C287.226 288.531 287.712 288.01 288.059 287.398C288.407 286.787 288.606 286.103 288.64 285.4C288.67 284.11 287.76 283.58 286.64 284.23Z" fill="#FAFAFA"/>
<path d="M293.07 280.51C292.484 280.9 291.998 281.421 291.651 282.032C291.303 282.644 291.105 283.328 291.07 284.03C291.07 285.32 291.98 285.85 293.07 285.2C293.656 284.811 294.142 284.29 294.489 283.679C294.837 283.067 295.036 282.383 295.07 281.68C295.1 280.39 294.19 279.86 293.07 280.51Z" fill="#FAFAFA"/>
<path d="M299.5 276.79C298.914 277.179 298.428 277.701 298.081 278.312C297.733 278.923 297.534 279.608 297.5 280.31C297.5 281.6 298.41 282.13 299.5 281.48C300.087 281.092 300.574 280.571 300.921 279.96C301.269 279.348 301.467 278.663 301.5 277.96C301.53 276.67 300.63 276.14 299.5 276.79Z" fill="#FAFAFA"/>
<path d="M305.94 273.07C305.354 273.459 304.868 273.98 304.521 274.592C304.173 275.203 303.974 275.888 303.94 276.59C303.94 277.88 304.85 278.41 305.94 277.76C306.526 277.371 307.012 276.85 307.359 276.238C307.707 275.627 307.906 274.942 307.94 274.24C308 273 307.06 272.42 305.94 273.07Z" fill="#FAFAFA"/>
<path d="M267.33 314.17C266.745 314.561 266.26 315.082 265.913 315.693C265.566 316.304 265.366 316.988 265.33 317.69C265.33 318.99 266.24 319.51 267.33 318.86C267.916 318.473 268.402 317.954 268.749 317.344C269.097 316.734 269.296 316.051 269.33 315.35C269.36 314.05 268.45 313.53 267.33 314.17Z" fill="#FAFAFA"/>
<path d="M273.77 310.45C273.184 310.839 272.697 311.36 272.35 311.971C272.002 312.583 271.804 313.268 271.77 313.97C271.77 315.27 272.67 315.79 273.77 315.14C274.356 314.753 274.842 314.234 275.189 313.624C275.537 313.014 275.736 312.331 275.77 311.63C275.8 310.33 274.89 309.81 273.77 310.45Z" fill="#FAFAFA"/>
<path d="M280.2 306.73C279.615 307.121 279.13 307.642 278.783 308.253C278.436 308.865 278.236 309.548 278.2 310.25C278.2 311.55 279.11 312.07 280.2 311.42C280.785 311.033 281.272 310.514 281.619 309.904C281.967 309.294 282.166 308.611 282.2 307.91C282.23 306.61 281.32 306.08 280.2 306.73Z" fill="#FAFAFA"/>
<path d="M286.64 303C286.054 303.389 285.568 303.911 285.221 304.522C284.873 305.133 284.675 305.818 284.64 306.52C284.64 307.82 285.55 308.34 286.64 307.69C287.226 307.303 287.712 306.784 288.059 306.174C288.407 305.564 288.606 304.881 288.64 304.18C288.67 302.89 287.76 302.36 286.64 303Z" fill="#FAFAFA"/>
<path d="M293.07 299.29C292.484 299.68 291.998 300.201 291.651 300.812C291.303 301.424 291.105 302.108 291.07 302.81C291.07 304.11 291.98 304.63 293.07 303.98C293.656 303.594 294.142 303.074 294.489 302.464C294.837 301.855 295.036 301.171 295.07 300.47C295.1 299.17 294.19 298.64 293.07 299.29Z" fill="#FAFAFA"/>
<path d="M299.5 295.57C298.914 295.959 298.428 296.48 298.081 297.092C297.733 297.703 297.534 298.388 297.5 299.09C297.5 300.39 298.41 300.91 299.5 300.26C300.088 299.873 300.576 299.353 300.923 298.741C301.271 298.129 301.469 297.443 301.5 296.74C301.53 295.45 300.63 294.92 299.5 295.57Z" fill="#FAFAFA"/>
<path d="M305.94 291.85C305.354 292.239 304.868 292.761 304.521 293.372C304.173 293.983 303.974 294.668 303.94 295.37C303.94 296.67 304.85 297.19 305.94 296.54C306.526 296.152 307.013 295.631 307.36 295.019C307.708 294.408 307.906 293.723 307.94 293.02C308 291.73 307.06 291.2 305.94 291.85Z" fill="#FAFAFA"/>
<path d="M396.19 334.13C392.734 334.154 389.334 333.256 386.34 331.53C379.13 327.36 375 318.66 375 307.63C375 288.25 387.32 265.96 403 256.88C411.47 251.99 419.88 251.46 426.69 255.39C433.89 259.55 438.03 268.26 438.03 279.28C438.03 298.66 425.71 320.96 409.98 330.04C405.82 332.585 401.065 333.995 396.19 334.13ZM416.85 266.75C414.416 266.922 412.062 267.695 410 269C398.6 275.55 389 293.26 389 307.63C389 313.45 390.63 317.87 393.36 319.44C396.47 321.24 400.8 319.28 403.09 317.95C414.52 311.36 424.16 293.65 424.16 279.28C424.16 273.46 422.53 269.05 419.8 267.47C418.9 266.967 417.88 266.718 416.85 266.75Z" fill="#455A64"/>
<path d="M426.61 282.38C426.61 271.49 419.75 267.47 419.75 267.47C422.48 269.05 424.11 273.47 424.11 279.28C424.11 293.65 414.47 311.36 403.04 317.95C400.75 319.28 396.43 321.24 393.31 319.44C393.31 319.44 399.1 323.04 407.1 318.67C418.68 312.36 426.61 296.75 426.61 282.38Z" fill="#37474F"/>
<path d="M415.61 146.29C415.54 144.423 414.75 142.656 413.404 141.359C412.059 140.063 410.263 139.339 408.395 139.339C406.527 139.339 404.731 140.063 403.385 141.359C402.04 142.656 401.249 144.423 401.18 146.29V261C401.232 261.643 401.454 262.261 401.826 262.788C402.197 263.316 402.702 263.734 403.29 264C404.871 264.799 406.618 265.215 408.39 265.215C410.162 265.215 411.909 264.799 413.49 264C414.08 263.737 414.588 263.319 414.961 262.791C415.334 262.263 415.558 261.645 415.61 261V146.31V146.29Z" fill="#37474F"/>
<path d="M409.85 171.93C409.771 170.484 409.352 169.076 408.628 167.822C407.903 166.567 406.893 165.501 405.68 164.71C405.252 164.396 404.745 164.206 404.216 164.16C403.687 164.114 403.156 164.215 402.68 164.45L384.9 174.7L384.47 174.95C384.405 174.977 384.344 175.014 384.29 175.06C383.987 175.265 383.703 175.496 383.44 175.75C382.437 176.75 381.827 178.077 381.722 179.489C381.616 180.901 382.022 182.303 382.865 183.441C383.708 184.579 384.932 185.375 386.313 185.685C387.695 185.995 389.142 185.798 390.39 185.13L390.73 184.93L408.64 174.62C409.062 174.319 409.396 173.911 409.608 173.439C409.821 172.966 409.904 172.445 409.85 171.93Z" fill="#455A64"/>
<path d="M409.85 200.65C409.77 199.205 409.35 197.8 408.626 196.547C407.901 195.295 406.892 194.23 405.68 193.44C405.254 193.123 404.748 192.929 404.218 192.882C403.689 192.834 403.156 192.934 402.68 193.17L381.82 205.17L381.39 205.42C381.325 205.449 381.265 205.486 381.21 205.53C380.905 205.732 380.621 205.963 380.36 206.22C379.709 206.869 379.217 207.66 378.925 208.531C378.632 209.403 378.547 210.33 378.675 211.24C378.803 212.15 379.141 213.018 379.663 213.775C380.184 214.532 380.875 215.157 381.68 215.6C382.549 216.061 383.517 216.301 384.5 216.3C385.48 216.305 386.446 216.064 387.31 215.6C387.43 215.54 387.54 215.46 387.65 215.4L408.65 203.4C409.079 203.092 409.418 202.675 409.629 202.19C409.84 201.706 409.917 201.174 409.85 200.65Z" fill="#455A64"/>
</svg>
